<?xml version="1.0" encoding="utf-8"?>
<!-- Generator: Adobe Illustrator 12.0.1, SVG Export Plug-In . SVG Version: 6.00 Build 51448)  -->
<!DOCTYPE svg PUBLIC "-//W3C//DTD SVG 1.1//EN" "http://www.w3.org/Graphics/SVG/1.1/DTD/svg11.dtd" [
	<!ENTITY ns_svg "http://www.w3.org/2000/svg">
	<!ENTITY ns_xlink "http://www.w3.org/1999/xlink">
]>
<svg  version="1.1" id="Layer_1" xmlns="&ns_svg;" xmlns:xlink="&ns_xlink;" width="69.128" height="53.983"
	 viewBox="0 0 69.128 53.983" overflow="visible" enable-background="new 0 0 69.128 53.983" xml:space="preserve">
<path d="M36.928,0.228c-0.892-0.408-1.934-0.258-2.675,0.383l-16.45,14.228l-15.303,0c-0.659,0-1.303,0.267-1.768,0.732
	S0,16.68,0,17.339v19.092c0,0.658,0.267,1.302,0.732,1.768C1.198,38.664,1.842,38.93,2.5,38.93h15.057l16.696,14.443
	c0.741,0.641,1.783,0.79,2.675,0.383c0.892-0.408,1.461-1.294,1.461-2.273V2.501C38.389,1.521,37.82,0.635,36.928,0.228z"/>
<g>
	<path d="M49.573,10.758c3.389,4.575,5.391,10.217,5.392,16.352c-0.001,6.076-1.969,11.668-5.304,16.221
		c-0.816,1.113-0.575,2.678,0.538,3.494s2.678,0.575,3.494-0.538c3.938-5.369,6.273-12.012,6.272-19.177
		c0.001-7.233-2.374-13.933-6.376-19.329c-0.822-1.109-2.388-1.342-3.497-0.52S48.75,9.648,49.573,10.758z"/>
	<path d="M60.171,52.893c5.601-7.085,8.958-16.053,8.957-25.783c0.001-9.798-3.4-18.82-9.063-25.926
		c-0.86-1.08-2.434-1.258-3.514-0.397c-1.079,0.86-1.258,2.433-0.397,3.513c4.989,6.266,7.973,14.175,7.975,22.811
		c-0.002,8.575-2.947,16.436-7.88,22.683c-0.856,1.084-0.672,2.656,0.411,3.512C57.744,54.161,59.316,53.976,60.171,52.893z"/>
	<path d="M46.75,39.083c2.162-3.468,3.441-7.576,3.439-11.975c0.002-4.469-1.312-8.637-3.536-12.14
		c-0.74-1.166-2.284-1.511-3.45-0.771c-1.166,0.74-1.512,2.285-0.771,3.451c1.742,2.749,2.757,5.973,2.758,9.46
		c-0.001,3.429-0.987,6.607-2.683,9.331c-0.73,1.172-0.372,2.714,0.8,3.443C44.478,40.614,46.02,40.255,46.75,39.083z"/>
</g>
</svg>
